<svg width="403" height="322" viewBox="0 0 403 322" fill="none" xmlns="http://www.w3.org/2000/svg">
<path d="M306.563 28.16C335.683 47.92 362.463 72.62 380.143 105.12C397.563 137.88 406.143 178.44 401.723 221.86C397.043 265.28 379.623 311.56 346.083 320.4C312.803 329.5 263.403 301.16 215.303 299.34C167.203 297.78 120.403 322.48 80.1028 315.72C39.8028 308.96 6.00278 270.74 1.06278 229.4C-3.87722 188.06 20.0428 143.34 50.9828 117.08C81.6628 90.82 119.103 83.02 147.443 63C175.783 42.72 194.763 10.74 220.243 1.90001C245.723 -6.67999 277.183 8.4 306.563 28.16Z" fill="#BAE6FF"/>
</svg>
