<svg width="497" height="201" viewBox="0 0 497 201" fill="none" xmlns="http://www.w3.org/2000/svg">
<path d="M229.995 -285.151C300.283 -242.28 394.001 -223.337 448.338 -165.511C502.674 -107.685 518.128 -11.4741 462.794 32.394C407.461 75.7634 281.34 66.2919 203.574 89.2229C125.31 112.652 95.3998 167.986 49.5378 189.92C3.67578 211.854 -58.1382 199.89 -104.997 166.989C-151.856 133.589 -183.76 79.253 -191.238 23.9195C-198.715 -30.9155 -181.766 -86.249 -152.355 -126.129C-123.442 -166.009 -83.0632 -190.436 -44.6787 -243.775C-6.29424 -297.115 29.5978 -378.869 70.9733 -386.346C112.847 -394.322 159.706 -327.523 229.995 -285.151Z" fill="#FFCEAB"/>
</svg>
