<svg width="205" height="205" viewBox="0 0 205 205" fill="none" xmlns="http://www.w3.org/2000/svg">
<g clip-path="url(#clip0_4_237)">
<path d="M114.641 203.787C170.778 196.885 210.69 145.781 203.787 89.6445C196.885 33.5078 145.781 -6.40428 89.6445 0.498385C33.5078 7.40105 -6.40428 58.5045 0.49838 114.641C7.40104 170.778 58.5045 210.69 114.641 203.787Z" fill="#757575"/>
<path fill-rule="evenodd" clip-rule="evenodd" d="M72.1498 45.2962L92.8898 66.0362C95.9563 65.6283 99.0464 65.4245 102.14 65.4262C107.126 65.4182 112.099 65.9513 116.97 67.0162C124.73 52.9562 137.63 35.8162 149.1 33.2562C149.69 33.1037 150.307 33.0802 150.907 33.1872C151.508 33.2942 152.078 33.5292 152.58 33.8762C153.106 34.2611 153.569 34.7268 153.95 35.2562L202.95 84.2562C205.542 98.9579 204.892 114.049 201.045 128.473C197.198 142.897 190.246 156.307 180.676 167.765C171.106 179.223 159.149 188.451 145.64 194.806C132.132 201.161 117.398 204.489 102.47 204.556L61.1598 163.246C52.8698 156.726 47.4098 147.756 47.0298 136.346C46.5098 120.656 54.0898 118.806 54.0898 98.3462C54.0884 96.8893 54.2291 95.4357 54.5098 94.0062C45.4098 72.7662 42.9898 30.5462 55.1798 33.2962C60.7298 34.5162 66.6598 39.1962 72.1498 45.2962Z" fill="#575656"/>
<path fill-rule="evenodd" clip-rule="evenodd" d="M113.05 74.8162C119.58 60.2362 135.37 36.3462 149.1 33.2362C162.83 30.1262 158.02 84.1262 146.01 100.876C134 117.626 109.28 94.3862 113.05 74.8162Z" fill="#F29049"/>
<path fill-rule="evenodd" clip-rule="evenodd" d="M130.16 74.7162C134.16 64.7162 143.28 48.2461 150.29 46.1161C157.3 43.9861 152.1 81.1161 145.24 92.6461C138.38 104.176 127.26 88.1661 130.16 74.7162Z" fill="#BA5F1E"/>
<path fill-rule="evenodd" clip-rule="evenodd" d="M91.2197 74.8162C84.7297 60.2562 68.9097 36.3662 55.1797 33.2562C41.4497 30.1462 46.2497 84.1462 58.2697 100.896C70.2897 117.646 94.9997 94.3862 91.2197 74.8162Z" fill="#FFCEAB"/>
<path fill-rule="evenodd" clip-rule="evenodd" d="M75.3398 74.7162C71.3398 64.7162 62.2198 48.2461 55.2098 46.1161C48.1998 43.9861 53.3998 81.1161 60.2598 92.6461C67.1198 104.176 78.2298 88.1661 75.3398 74.7162Z" fill="#F29049"/>
<path fill-rule="evenodd" clip-rule="evenodd" d="M157.25 136.346C158.84 189.856 48.7797 189.066 47.0297 136.346C46.5097 120.656 54.0897 118.806 54.0897 98.3462C54.0897 80.1862 75.5997 65.4662 102.14 65.4662C128.68 65.4662 150.19 80.1862 150.19 98.3462C150.19 118.816 156.79 120.656 157.25 136.346Z" fill="#FFCEAB"/>
<path fill-rule="evenodd" clip-rule="evenodd" d="M88.6598 66.7362C93.0988 65.8552 97.6142 65.4164 102.14 65.4262C128.68 65.4262 150.19 80.1462 150.19 98.3062C150.036 104.988 151.051 111.644 153.19 117.976C148.029 119.818 142.589 120.755 137.11 120.746C110.26 120.746 88.4898 98.5762 88.4898 71.2262C88.4598 69.7062 88.5298 68.2162 88.6598 66.7362Z" fill="#F29049"/>
<path fill-rule="evenodd" clip-rule="evenodd" d="M102.14 171.426C121.14 171.426 136.59 158.716 136.59 143.136C136.59 127.556 121.11 114.816 102.14 114.816C83.1697 114.816 67.7297 127.556 67.7297 143.136C67.7297 158.716 83.1597 171.426 102.14 171.426Z" fill="white"/>
<path fill-rule="evenodd" clip-rule="evenodd" d="M84.0098 115.176C86.2698 115.176 88.1098 111.576 88.1098 107.176C88.1098 102.776 86.2698 99.1761 84.0098 99.1761C81.7498 99.1761 79.8998 102.776 79.8998 107.176C79.8998 111.576 81.7298 115.176 84.0098 115.176Z" fill="#333333"/>
<path fill-rule="evenodd" clip-rule="evenodd" d="M120.27 115.176C122.53 115.176 124.37 111.576 124.37 107.176C124.37 102.776 122.53 99.1761 120.27 99.1761C118.01 99.1761 116.16 102.776 116.16 107.176C116.16 111.576 118.01 115.176 120.27 115.176Z" fill="#333333"/>
<path fill-rule="evenodd" clip-rule="evenodd" d="M102.14 137.536C109.27 137.536 115.14 133.106 115.14 127.676C115.14 122.246 109.32 117.826 102.14 117.826C94.9598 117.826 89.1398 122.256 89.1398 127.676C89.1398 133.096 95.0098 137.536 102.14 137.536Z" fill="#333333"/>
<path d="M90.2098 142.866C90.0784 142.658 89.9894 142.426 89.9477 142.183C89.906 141.941 89.9126 141.693 89.9669 141.452C90.0212 141.212 90.1223 140.985 90.2643 140.784C90.4064 140.584 90.5866 140.412 90.7948 140.281C91.0029 140.15 91.2349 140.061 91.4774 140.019C91.72 139.977 91.9684 139.984 92.2084 140.038C92.4484 140.093 92.6754 140.194 92.8764 140.336C93.0774 140.478 93.2484 140.658 93.3798 140.866C93.5782 141.153 93.8252 141.404 94.1097 141.606C96.1871 142.961 98.5758 143.763 101.05 143.936C103.824 144.319 106.647 143.797 109.1 142.446C109.83 141.994 110.471 141.411 110.99 140.726C111.292 140.328 111.74 140.067 112.235 139.999C112.73 139.932 113.232 140.064 113.63 140.366C114.028 140.669 114.289 141.117 114.357 141.612C114.424 142.107 114.292 142.608 113.99 143.006C113.192 144.04 112.217 144.924 111.11 145.616C107.952 147.404 104.295 148.107 100.7 147.616C97.5374 147.374 94.4918 146.316 91.8597 144.546C91.2175 144.085 90.6594 143.517 90.2098 142.866Z" fill="#333333"/>
<path fill-rule="evenodd" clip-rule="evenodd" d="M113.05 74.8162C119.58 60.2362 135.37 36.3462 149.1 33.2362C162.83 30.1262 158.02 84.1262 146.01 100.876C134 117.626 109.28 94.3862 113.05 74.8162Z" fill="#F29049"/>
<path fill-rule="evenodd" clip-rule="evenodd" d="M130.16 74.7162C134.16 64.7162 143.28 48.2461 150.29 46.1161C157.3 43.9861 152.1 81.1161 145.24 92.6461C138.38 104.176 127.26 88.1661 130.16 74.7162Z" fill="#BA5F1E"/>
<path fill-rule="evenodd" clip-rule="evenodd" d="M91.2197 74.8162C84.7297 60.2562 68.9097 36.3662 55.1797 33.2562C41.4497 30.1462 46.2497 84.1462 58.2697 100.896C70.2897 117.646 94.9997 94.3862 91.2197 74.8162Z" fill="#FFCEAB"/>
<path fill-rule="evenodd" clip-rule="evenodd" d="M75.3398 74.7162C71.3398 64.7162 62.2198 48.2461 55.2098 46.1161C48.1998 43.9861 53.3998 81.1161 60.2598 92.6461C67.1198 104.176 78.2298 88.1661 75.3398 74.7162Z" fill="#F29049"/>
<path fill-rule="evenodd" clip-rule="evenodd" d="M157.25 136.346C158.84 189.856 48.7797 189.066 47.0297 136.346C46.5097 120.656 54.0897 118.806 54.0897 98.3462C54.0897 80.1862 75.5997 65.4662 102.14 65.4662C128.68 65.4662 150.19 80.1862 150.19 98.3462C150.19 118.816 156.79 120.656 157.25 136.346Z" fill="#FFCEAB"/>
<path fill-rule="evenodd" clip-rule="evenodd" d="M88.6598 66.7362C93.0988 65.8552 97.6142 65.4164 102.14 65.4262C128.68 65.4262 150.19 80.1462 150.19 98.3062C150.036 104.988 151.051 111.644 153.19 117.976C148.029 119.818 142.589 120.755 137.11 120.746C110.26 120.746 88.4898 98.5762 88.4898 71.2262C88.4598 69.7062 88.5298 68.2162 88.6598 66.7362Z" fill="#F29049"/>
<path fill-rule="evenodd" clip-rule="evenodd" d="M102.14 171.426C121.14 171.426 136.59 158.716 136.59 143.136C136.59 127.556 121.11 114.816 102.14 114.816C83.1697 114.816 67.7297 127.556 67.7297 143.136C67.7297 158.716 83.1597 171.426 102.14 171.426Z" fill="white"/>
<path fill-rule="evenodd" clip-rule="evenodd" d="M84.0098 115.176C86.2698 115.176 88.1098 111.576 88.1098 107.176C88.1098 102.776 86.2698 99.1761 84.0098 99.1761C81.7498 99.1761 79.8998 102.776 79.8998 107.176C79.8998 111.576 81.7298 115.176 84.0098 115.176Z" fill="#333333"/>
<path fill-rule="evenodd" clip-rule="evenodd" d="M120.27 115.176C122.53 115.176 124.37 111.576 124.37 107.176C124.37 102.776 122.53 99.1761 120.27 99.1761C118.01 99.1761 116.16 102.776 116.16 107.176C116.16 111.576 118.01 115.176 120.27 115.176Z" fill="#333333"/>
<path fill-rule="evenodd" clip-rule="evenodd" d="M102.14 137.536C109.27 137.536 115.14 133.106 115.14 127.676C115.14 122.246 109.32 117.826 102.14 117.826C94.9598 117.826 89.1398 122.256 89.1398 127.676C89.1398 133.096 95.0098 137.536 102.14 137.536Z" fill="#333333"/>
<path d="M90.2098 142.866C90.0784 142.658 89.9894 142.426 89.9477 142.183C89.906 141.941 89.9126 141.693 89.9669 141.452C90.0212 141.212 90.1223 140.985 90.2643 140.784C90.4064 140.584 90.5866 140.412 90.7948 140.281C91.0029 140.15 91.2349 140.061 91.4774 140.019C91.72 139.977 91.9684 139.984 92.2084 140.038C92.4484 140.093 92.6754 140.194 92.8764 140.336C93.0774 140.478 93.2484 140.658 93.3798 140.866C93.5782 141.153 93.8252 141.404 94.1097 141.606C96.1871 142.961 98.5758 143.763 101.05 143.936C103.824 144.319 106.647 143.797 109.1 142.446C109.83 141.994 110.471 141.411 110.99 140.726C111.292 140.328 111.74 140.067 112.235 139.999C112.73 139.932 113.232 140.064 113.63 140.366C114.028 140.669 114.289 141.117 114.357 141.612C114.424 142.107 114.292 142.608 113.99 143.006C113.192 144.04 112.217 144.924 111.11 145.616C107.952 147.404 104.295 148.107 100.7 147.616C97.5374 147.374 94.4918 146.316 91.8597 144.546C91.2175 144.085 90.6594 143.517 90.2098 142.866Z" fill="#333333"/>
<path d="M102.642 162.369C102.396 162.378 102.151 162.34 101.92 162.254C101.689 162.169 101.477 162.039 101.296 161.872C101.116 161.705 100.97 161.504 100.867 161.281C100.764 161.057 100.706 160.816 100.696 160.57C100.686 160.324 100.725 160.078 100.81 159.847C100.896 159.616 101.025 159.405 101.193 159.224C101.36 159.043 101.561 158.897 101.784 158.794C102.008 158.691 102.249 158.633 102.495 158.623C102.843 158.595 103.184 158.506 103.501 158.361C105.713 157.24 107.602 155.572 108.989 153.516C110.708 151.305 111.667 148.599 111.723 145.8C111.697 144.941 111.512 144.095 111.179 143.303C110.986 142.842 110.983 142.323 111.172 141.861C111.361 141.398 111.726 141.03 112.187 140.836C112.648 140.643 113.167 140.641 113.629 140.83C114.092 141.019 114.46 141.384 114.653 141.845C115.15 143.052 115.428 144.339 115.474 145.644C115.443 149.272 114.223 152.791 112.001 155.659C110.21 158.277 107.771 160.385 104.922 161.78C104.202 162.105 103.43 162.304 102.642 162.369Z" fill="#333333"/>
<path d="M89.3899 141.692C89.5045 141.475 89.6609 141.281 89.8501 141.124C90.0394 140.967 90.2577 140.848 90.4928 140.775C90.7278 140.702 90.9749 140.676 91.22 140.699C91.4651 140.721 91.7033 140.792 91.9211 140.907C92.1389 141.021 92.332 141.177 92.4894 141.367C92.6467 141.556 92.7653 141.774 92.8383 142.009C92.9113 142.244 92.9372 142.491 92.9147 142.737C92.8922 142.982 92.8216 143.22 92.707 143.438C92.5574 143.753 92.4641 144.092 92.4311 144.44C92.2966 146.916 92.7965 149.386 93.8833 151.615C94.9383 154.209 96.8025 156.393 99.1987 157.842C99.9556 158.248 100.781 158.511 101.633 158.618C102.129 158.681 102.579 158.939 102.885 159.334C103.191 159.729 103.328 160.229 103.265 160.725C103.202 161.22 102.945 161.671 102.55 161.977C102.155 162.283 101.654 162.419 101.159 162.356C99.8644 162.183 98.6114 161.78 97.4584 161.167C94.3312 159.327 91.8943 156.511 90.5213 153.152C89.1502 150.292 88.5434 147.126 88.76 143.961C88.8384 143.175 89.0515 142.407 89.3899 141.692Z" fill="#333333"/>
</g>
<defs>
<clipPath id="clip0_4_237">
<rect width="205" height="205" fill="white"/>
</clipPath>
</defs>
</svg>
